<svg xmlns="http://www.w3.org/2000/svg" version="1.0" width="512.000000pt" height="512.000000pt" viewBox="0 0 512.000000 512.000000" preserveAspectRatio="xMidYMid meet">

<g transform="translate(0.000000,512.000000) scale(0.100000,-0.100000)" fill="#005052" stroke="none">
<path d="M2235 4160 l-320 -320 -317 0 -318 0 0 -317 0 -318 -322 -322 -323 -323 323 -323 322 -322 0 -318 0 -317 317 0 318 0 322 -322 323 -323 323 323 322 322 318 0 317 0 0 317 0 318 322 322 323 323 -323 323 -322 322 0 318 0 317 -318 0 -317 0 -320 320 c-176 176 -322 320 -325 320 -3 0 -149 -144 -325 -320z m585 -385 l255 -255 222 0 223 0 0 -222 0 -223 257 -257 258 -258 -258 -258 -257 -257 0 -223 0 -222 -222 0 -223 0 -257 -257 -258 -258 -258 258 -257 257 -223 0 -222 0 0 222 0 223 -257 257 -258 258 258 258 257 257 0 223 0 222 223 0 222 0 255 255 c140 140 257 255 260 255 3 0 120 -115 260 -255z" fill="#005052"/>
</g>
</svg>