<?xml version="1.0" standalone="no"?>
<svg xmlns:xlink="http://www.w3.org/1999/xlink" id="wave" style="transform:rotate(0deg); transition: 0.3s" viewBox="0 0 1440 260" version="1.1" xmlns="http://www.w3.org/2000/svg"><defs><linearGradient id="sw-gradient-0" x1="0" x2="0" y1="1" y2="0"><stop stop-color="rgba(106, 168, 230, 1)" offset="0%"/><stop stop-color="rgba(154, 203, 246, 1)" offset="100%"/></linearGradient></defs><path style="transform:translate(0, 0px); opacity:1" fill="url(#sw-gradient-0)" d="M0,0L40,8.7C80,17,160,35,240,43.3C320,52,400,52,480,78C560,104,640,156,720,160.3C800,165,880,121,960,99.7C1040,78,1120,78,1200,91C1280,104,1360,130,1440,138.7C1520,147,1600,139,1680,125.7C1760,113,1840,95,1920,82.3C2000,69,2080,61,2160,60.7C2240,61,2320,69,2400,99.7C2480,130,2560,182,2640,173.3C2720,165,2800,95,2880,65C2960,35,3040,43,3120,43.3C3200,43,3280,35,3360,60.7C3440,87,3520,147,3600,143C3680,139,3760,69,3840,47.7C3920,26,4000,52,4080,73.7C4160,95,4240,113,4320,125.7C4400,139,4480,147,4560,125.7C4640,104,4720,52,4800,30.3C4880,9,4960,17,5040,26C5120,35,5200,43,5280,69.3C5360,95,5440,139,5520,164.7C5600,191,5680,199,5720,203.7L5760,208L5760,260L5720,260C5680,260,5600,260,5520,260C5440,260,5360,260,5280,260C5200,260,5120,260,5040,260C4960,260,4880,260,4800,260C4720,260,4640,260,4560,260C4480,260,4400,260,4320,260C4240,260,4160,260,4080,260C4000,260,3920,260,3840,260C3760,260,3680,260,3600,260C3520,260,3440,260,3360,260C3280,260,3200,260,3120,260C3040,260,2960,260,2880,260C2800,260,2720,260,2640,260C2560,260,2480,260,2400,260C2320,260,2240,260,2160,260C2080,260,2000,260,1920,260C1840,260,1760,260,1680,260C1600,260,1520,260,1440,260C1360,260,1280,260,1200,260C1120,260,1040,260,960,260C880,260,800,260,720,260C640,260,560,260,480,260C400,260,320,260,240,260C160,260,80,260,40,260L0,260Z"/></svg>